<svg id="svg-1239084921_6657" data-name="Layer 1" viewBox="0 0 432.63 372.7" xmlns="http://www.w3.org/2000/svg"><defs><style>.cls-1{fill:#fff}</style></defs><path class="cls-1" d="M158.5 233.59h38.91v89.11h35.84v-89.11h38.74v-25.76H158.5v25.76zm117.88-124.9c-6.57-43.69-48.17-52.47-48.17-52.47 45.38 51.05-2.48 89.63-2.48 89.63-27.54 21.85-31.95 35.74-32.89 34s1.43-10.61 1.43-10.61c2.57-14 35.23-27.65 27.49-56.09S193 75.4 193 75.4c5.15 25.32-20.56 42.84-20.56 42.84-49.77 38.57-14.25 82.2-14.25 82.2h48.75C223.5 168 283 152.37 276.38 108.69Zm13.45 28.93c-4.07 8.23-9.07 17.3-37.54 34s-31.6 28.78-31.6 28.78h49.74c35.67-30.75 19.4-62.78 19.4-62.78ZM132.22 15.4a.43.43 0 0 0-.33-.69c-6.16 0-47.45 1.33-51.32 38.89a90.75 90.75 0 0 0 10.52-2.43s17.1-2.17 41.13-35.77ZM59.51 85.19s-.54 1.62 4.59 0S90.55 74.12 93 72.5s12.57-7.8 15.34-15.67a1.22 1.22 0 0 0-.74-1.53c-3.22-1.25-13.48-4.06-27 3.7a47.73 47.73 0 0 0-21.09 26.19Zm-3.11-3.87c7-12.07 12.81-18.75 15.8-21.26a8.43 8.43 0 0 0 2.86-4.81c1.62-8 4.37-24.3 5.24-29.47a.66.66 0 0 0-1.06-.61C46.62 50 53.12 75.51 55.22 81.25a.65.65 0 0 0 1.18.07ZM38.42 123.7a1 1 0 0 0 1.68-.7c1.46-9.06 7.67-22.38 9.12-25.13a4.56 4.56 0 0 0 .45-1.2c1.79-8.46-.76-27.92-1.55-33.49a.7.7 0 0 0-1.23-.33c-17.24 20.57-14.38 38.51-14.38 38.51.91 15.05 4.06 20.79 5.91 22.34Zm-4.99 45.95a.61.61 0 0 0 1-.48c-.23-14.38 1-22.73 2.24-26.43a9.11 9.11 0 0 0 0-5.77c-2.66-8.09-7.9-24.26-9.79-29.44a.65.65 0 0 0-1.21-.08c-14.94 38 3.07 57.86 7.76 62.2ZM40.86 215a.6.6 0 0 0 .88-.72c-5.32-13.23-5.8-17.62-5.31-26.52A11.83 11.83 0 0 0 35 182.2c-4-8.62-14.46-21.56-17.59-26.1a.64.64 0 0 0-1.18.23C11.2 196.86 35.24 212 40.86 215Zm17.9 40.88a.6.6 0 0 0 .66-.92c-8.49-11.45-8.18-14.76-10.93-23.36a15 15 0 0 0-2.82-5c-6.05-7.33-19.44-17.19-23.62-20.8a.64.64 0 0 0-1.08.52c5.41 40.43 31.58 48.05 37.79 49.56Zm29.41 35.06a.67.67 0 0 0 .37-1.22c-11.17-8.52-12.67-12.52-17.44-19.81a14.73 14.73 0 0 0-4.1-4.05c-7.85-5.35-23.47-11.08-28.48-13.38a.64.64 0 0 0-.9.8c16.38 37.16 39.04 38.11 50.55 37.66Zm20.52 28.81s6.56.82 16.63-2.43a.24.24 0 0 0 0-.45 47.92 47.92 0 0 1-16.32-9.63c-9-7.83-7.64-8.3-20.72-10.79-12.06-2.28-19-3-21.22-3.06a.28.28 0 0 0-.25.41c.92 1.67 5 8.36 16.5 16.69 13.26 9.64 25.38 9.26 25.38 9.26Zm57.6 13.87a.54.54 0 0 0-.33-.85c-3.18-.76-16.63-4.11-22.42-8-6.46-4.4-26.49-1.19-38.07.47a.33.33 0 0 0-.18.58A58.68 58.68 0 0 0 135 339.71c16.9 2.37 29.08-3.18 31.29-6.09Z"></path><path class="cls-1" d="M83.89 85.47a.7.7 0 0 0-.7-.77c-5-.12-33.45.92-39.45 40.57a.56.56 0 0 0 .82.59c6.02-3.45 37.71-22.44 39.33-40.39Zm-21.98 56.41s7.59-13.15 5-21.64a.85.85 0 0 0-1-.56c-3.87.83-21.87 6-26.47 30.08 0 0-1.44 12.91-.56 19.27a.5.5 0 0 0 .8.32c2.32-1.77 10.76-8.88 22.23-27.47ZM46.54 213a121.61 121.61 0 0 0 13-29.76c4.35-15.15 1.8-23.19.82-25.48a.73.73 0 0 0-1-.36c-3.1 1.58-15.86 9.13-18.57 27.45-2.29 15.4 3.1 25.44 4.8 28.15a.57.57 0 0 0 .95 0Zm17.07 40.26a.5.5 0 0 0 .87-.17c1.33-4.27 6.89-23.32 4.78-38-1.76-12.22-4.86-16.74-6.37-18.27a1.16 1.16 0 0 0-1.63-.05c-5.19 5-11.94 17.46-9.66 31.22 2.04 12.33 9.8 22.56 12.01 25.27Zm27.92 34.58a.5.5 0 0 0 .75-.42c0-4.34-.06-24.78-5.07-38-4.49-11.85-9.39-16-11.21-17.15a.83.83 0 0 0-1.17.24c-1.7 2.7-7.55 13.59-2.61 29.8a45.05 45.05 0 0 0 19.31 25.53Zm4.64-6.35c.23 4 6 12.5 6 12.5A50.77 50.77 0 0 0 128 313.54a.46.46 0 0 0 .59-.55c-1.78-7.54-9.08-23.64-14.06-33.32-5.15-10-18.86-17.66-18.39-14.89s-.2 12.7.03 16.71ZM337.44 51.17A91.05 91.05 0 0 0 348 53.6c-3.9-37.6-45.2-38.91-51.36-38.89a.43.43 0 0 0-.33.69c24.04 33.6 41.13 35.77 41.13 35.77Zm27 34.02c5.13 1.62 4.59 0 4.59 0A47.73 47.73 0 0 0 348 59c-13.54-7.76-23.79-5-27-3.7a1.22 1.22 0 0 0-.74 1.53C323 64.7 333.23 71 335.55 72.5s23.76 11.07 28.89 12.69Zm-8.1-25.13c3 2.51 8.82 9.19 15.79 21.26a.65.65 0 0 0 1.18-.07c2.11-5.74 8.61-31.29-24-56.08a.65.65 0 0 0-1.05.61c.86 5.17 3.62 21.52 5.23 29.47a8.45 8.45 0 0 0 2.85 4.81Zm22.97 37.84c1.45 2.75 7.67 16.07 9.12 25.13a1 1 0 0 0 1.69.67c1.85-1.55 5-7.29 5.91-22.31 0 0 2.86-17.94-14.38-38.51a.7.7 0 0 0-1.23.33c-.8 5.57-3.35 25-1.55 33.49a4.54 4.54 0 0 0 .44 1.2Zm12.52 44.84c1.26 3.7 2.48 12 2.25 26.43a.61.61 0 0 0 1 .48c4.68-4.34 22.7-24.2 7.74-62.2a.64.64 0 0 0-1.2.08c-1.89 5.18-7.13 21.35-9.8 29.44a9.18 9.18 0 0 0 .01 5.77Zm.27 45.04c.5 8.9 0 13.29-5.3 26.52a.6.6 0 0 0 .88.72c5.62-3 29.65-18.16 24.66-58.69a.64.64 0 0 0-1.19-.23c-3.12 4.54-13.59 17.48-17.59 26.1a12 12 0 0 0-1.46 5.58Zm14.38 17.98c-4.17 3.61-17.57 13.47-23.61 20.8a15 15 0 0 0-2.83 5c-2.74 8.6-2.44 11.91-10.93 23.36a.6.6 0 0 0 .67.92c6.2-1.51 32.38-9.13 37.79-49.6a.64.64 0 0 0-1.09-.48ZM390 252.48c-5 2.3-20.63 8-28.49 13.38a14.56 14.56 0 0 0-4.11 4.05c-4.78 7.29-6.27 11.29-17.44 19.81a.67.67 0 0 0 .37 1.22c11.51.45 34.16-.5 50.57-37.66a.64.64 0 0 0-.9-.8Zm-28.51 40.91c-2.21 0-9.15.78-21.21 3.06-13.08 2.49-11.75 3-20.72 10.79a47.92 47.92 0 0 1-16.36 9.63.24.24 0 0 0 0 .45c10.06 3.25 16.62 2.43 16.62 2.43s12.13.38 25.4-9.26c11.46-8.33 15.59-15 16.5-16.69a.27.27 0 0 0-.23-.41Zm-38.43 31.8c-11.58-1.66-31.61-4.87-38.06-.47-5.79 3.94-19.24 7.29-22.42 8a.54.54 0 0 0-.34.85c2.22 2.91 14.39 8.46 31.25 6.09a58.58 58.58 0 0 0 29.75-13.94.33.33 0 0 0-.18-.53Z"></path><path class="cls-1" d="M299.32 352c-13.94-4.25-45.5-12.36-54.72-9.66-4.59 1.34-12 2-18.5 2.25a291.32 291.32 0 0 1 40.9-17.11c40.39-12.69 34.75-38.6 34.75-38.6s-17.66.12-37.14 31c0 0-1.62 5.35-16.8 9.46-7.51 2-18.64 6.74-33.49 15.05-14.85-8.31-26-13-33.49-15.05-15.19-4.11-16.81-9.46-16.81-9.46-19.48-30.84-37.14-31-37.14-31s-5.63 25.91 34.75 38.6a291.12 291.12 0 0 1 40.86 17.06c-6.45-.29-13.92-.91-18.5-2.25-9.22-2.7-40.79 5.41-54.73 9.66-.35.11-.38.46-.06.6 3.69 1.57 27.67 7.52 48.31 6s33.92-9 36.81-12.51c2.88 3.53 16.2 11 36.81 12.51s44.62-4.4 48.3-6c.28-.14.24-.49-.11-.55Zm85.48-226.73c-6-39.65-34.47-40.69-39.46-40.57a.7.7 0 0 0-.69.77c1.62 18 33.31 36.94 39.33 40.39a.57.57 0 0 0 .82-.59Zm-22.16-5.59a.84.84 0 0 0-1 .56c-2.62 8.49 5 21.64 5 21.64 11.47 18.59 19.88 25.7 22.24 27.47a.5.5 0 0 0 .8-.32c.89-6.36-.56-19.27-.56-19.27-4.6-24.12-22.6-29.25-26.48-30.08ZM383 213c1.7-2.71 7.08-12.75 4.8-28.15-2.72-18.32-15.48-25.87-18.58-27.45a.72.72 0 0 0-1 .36c-1 2.29-3.53 10.33.81 25.48A121.07 121.07 0 0 0 382 213a.57.57 0 0 0 1 0Zm-18.07 40.26c2.21-2.71 10-12.94 12-25.26 2.28-13.76-4.47-26.21-9.66-31.22a1.16 1.16 0 0 0-1.63.05c-1.52 1.53-4.62 6-6.37 18.27-2.11 14.67 3.44 33.72 4.78 38a.5.5 0 0 0 .88.16ZM337 287.84a45 45 0 0 0 19.32-25.57c4.94-16.21-.91-27.1-2.62-29.8a.83.83 0 0 0-1.17-.24c-1.81 1.19-6.72 5.3-11.2 17.15-5 13.26-5.11 33.7-5.08 38a.5.5 0 0 0 .75.46Z"></path><path class="cls-1" d="M314 279.67c-5 9.68-12.27 25.78-14.05 33.32a.46.46 0 0 0 .59.55A50.77 50.77 0 0 0 326.39 294s5.74-8.49 6-12.5-.48-13.94 0-16.71-13.26 4.86-18.39 14.88Z"></path></svg>